Coordinates
version=1
nRows=5
nColumns=40
inDegrees=yes

Units are S.I. units (second, meters, Newtons, ...)
If the header above contains a line with 'inDegrees', this indicates whether rotational values are in degrees (yes) or radians (no).

endheader
time	pelvis_tilt	pelvis_list	pelvis_rotation	pelvis_tx	pelvis_ty	pelvis_tz	hip_flexion_r	hip_adduction_r	hip_rotation_r	knee_angle_r	knee_angle_r_beta	ankle_angle_r	subtalar_angle_r	mtp_angle_r	hip_flexion_l	hip_adduction_l	hip_rotation_l	knee_angle_l	knee_angle_l_beta	ankle_angle_l	subtalar_angle_l	mtp_angle_l	lumbar_extension	lumbar_bending	lumbar_rotation	arm_flex_r	arm_add_r	arm_rot_r	elbow_flex_r	pro_sup_r	wrist_flex_r	wrist_dev_r	arm_flex_l	arm_add_l	arm_rot_l	elbow_flex_l	pro_sup_l	wrist_flex_l	wrist_dev_l
     11.05000000000000071054	     -8.17584674472973382819	     -4.13729122116157643774	   -179.32881304904802277633	      0.17764838147864647766	      0.87105552973026267871	     -0.91568022684773520137	      4.41564464551190472008	    -34.75092609250921782404	    -33.42526951996465101047	     14.91620947991810375299	      0.26033696734176192678	    -14.75586564761639429832	      0.00000000000000000000	      0.00000000000000000000	      0.36738111374538823251	    -24.32712192456081012892	    -33.99650035380919632644	     11.55611193614758391845	      0.20169220201479207133	    -11.31026150669030272411	      0.00000000000000000000	      0.00000000000000000000	    -31.23094435209940655795	     -1.26562041565251659492	     -7.13840061832938310715	     22.57767761760871749743	     -3.75509875173952201166	     36.47655423906081750829	      5.24613014447929781880	     18.17324208569794663504	      0.00000000000000000000	      0.00000000000000000000	     25.29141463617063578795	     -8.01408258180633126244	     74.87122311721714140731	      8.94985183652589633141	     76.49166252522537945424	      0.00000000000000000000	      0.00000000000000000000
     11.05499999999999971578	     -8.32401411770689314551	     -4.49291413872376121930	   -179.23598230251738527841	      0.17670390025684237778	      0.87132242114319546911	     -0.91492783041345970840	      4.04202403465369020097	    -35.10356626281456016159	    -33.27572759217786568797	     14.74017355416427399462	      0.25726456083556131782	    -14.65712618281597734438	      0.00000000000000000000	      0.00000000000000000000	      0.00929708628080968234	    -23.80296193836470308725	    -34.02195921168259218348	     11.20974199211746658023	      0.19564690606151804997	    -11.33637575693539822907	      0.00000000000000000000	      0.00000000000000000000	    -30.81104286825734561717	     -1.50233169983151459981	     -7.24574492926277269333	     22.36594661601521849548	     -3.87752220299783045832	     36.50886583251606509748	      5.25079221102248450137	     18.19722551097309448664	      0.00000000000000000000	      0.00000000000000000000	     24.97748729442571757886	     -7.91002276598838260924	     74.87984742723098463557	      9.04368743017766618664	     76.49887566453723763971	      0.00000000000000000000	      0.00000000000000000000
     11.06000000000000049738	     -8.54434536785287512828	     -5.15049337325111622476	   -179.24204841882644245743	      0.17592286739191506650	      0.87183298349509752434	     -0.91444626879857027202	      3.69848793055426838805	    -35.77582940545855905157	    -32.91793997979978314561	     14.59502101145587893427	      0.25473117104765813368	    -14.73160427263882610305	      0.00000000000000000000	      0.00000000000000000000	     -0.52446003514643979582	    -22.87793284649347214099	    -34.08431179562464308219	     10.64307235345689406358	      0.18575665509580449597	    -11.73088666107698863073	      0.00000000000000000000	      0.00000000000000000000	    -30.53535757597505195804	     -2.14811609515015078387	     -7.37157650923191187786	     21.95858342801710705317	     -3.95019161726189382833	     36.62645571738629968195	      5.37563992052300410052	     18.28258230056104238770	      0.00000000000000000000	      0.00000000000000000000	     24.85183131328222927436	     -7.94610482626952752128	     74.80389455361907380393	      9.13965315486423790503	     76.48612746529043704413	      0.00000000000000000000	      0.00000000000000000000
     11.06499999999999950262	     -8.64447019163434049460	     -5.40133480809905019981	   -179.06369640012198374279	      0.17512703714033028835	      0.87193966755457685824	     -0.91369683541715729369	      3.31145353795856234314	    -36.00341515734436370622	    -32.80968325055374634758	     14.42998850749494366141	      0.25185081048072921472	    -14.60493387664740616572	      0.00000000000000000000	      0.00000000000000000000	     -0.67183046994241613081	    -22.54681917671844004758	    -34.00032713963307884342	     10.55904963429296650190	      0.18429018199991542559	    -11.59283785051538373523	      0.00000000000000000000	      0.00000000000000000000	    -30.06908377775371121743	     -2.25802144551208083811	     -7.49888010111258562773	     21.73943241119891212065	     -4.10344571890428078120	     36.62278332712680395389	      5.33190311408426431683	     18.29041499004722126642	      0.00000000000000000000	      0.00000000000000000000	     24.52993616860606351793	     -7.85094545432353374537	     74.80053067122898369234	      9.20882975407202941653	     76.49759492322057496949	      0.00000000000000000000	      0.00000000000000000000
     11.07000000000000028422	     -8.80036374674833155041	     -6.11887986607122069671	   -179.10875021641166426889	      0.17436853024037304860	      0.87214565761355244966	     -0.91334161209156272676	      3.14575244063626691116	    -36.80491317403291873234	    -32.28820148374438758765	     14.42160606869825478782	      0.25170450932438009906	    -14.59927326221237287029	      0.00000000000000000000	      0.00000000000000000000	     -1.14208865038047679974	    -21.58686732014149001202	    -34.10912833353115303225	     10.04021823837286042647	      0.17523486587839129380	    -11.88514258306173410062	      0.00000000000000000000	      0.00000000000000000000	    -29.73749059411180439838	     -3.01618858424594504797	     -7.58564016648286454370	     21.23049351160069875277	     -4.22457920127138475408	     36.73047882577099443324	      5.48289012926301566608	     18.39847917863229653790	      0.00000000000000000000	      0.00000000000000000000	     24.38976118805711479354	     -7.92251253531658505835	     74.59996824057591879864	      9.31926593227284882914	     76.48520561805038653347	      0.00000000000000000000	      0.00000000000000000000
